<?xml version="1.0" encoding="UTF-8" standalone="no"?>
<svg
   xmlns:dc="http://purl.org/dc/elements/1.1/"
   xmlns:cc="http://creativecommons.org/ns#"
   xmlns:rdf="http://www.w3.org/1999/02/22-rdf-syntax-ns#"
   xmlns:svg="http://www.w3.org/2000/svg"
   xmlns="http://www.w3.org/2000/svg"
   xmlns:sodipodi="http://sodipodi.sourceforge.net/DTD/sodipodi-0.dtd"
   xmlns:inkscape="http://www.inkscape.org/namespaces/inkscape"
   width="50.291508mm"
   height="29.03587mm"
   viewBox="0 0 50.291508 29.03587"
   version="1.1"
   id="svg8"
   sodipodi:docname="zink-logo-color-bright.svg"
   inkscape:version="1.0.2 (e86c870879, 2021-01-15, custom)">
  <defs
     id="defs2" />
  <sodipodi:namedview
     id="base"
     pagecolor="#ffffff"
     bordercolor="#666666"
     borderopacity="1.0"
     inkscape:pageopacity="0.0"
     inkscape:pageshadow="2"
     inkscape:zoom="1.979899"
     inkscape:cx="-17.581739"
     inkscape:cy="61.603745"
     inkscape:document-units="mm"
     inkscape:current-layer="g845"
     inkscape:document-rotation="0"
     showgrid="false"
     inkscape:snap-center="false"
     inkscape:snap-bbox="true"
     inkscape:bbox-paths="false"
     inkscape:bbox-nodes="true"
     inkscape:snap-bbox-edge-midpoints="false"
     inkscape:snap-page="true"
     inkscape:snap-bbox-midpoints="true"
     inkscape:window-width="1920"
     inkscape:window-height="1017"
     inkscape:window-x="1912"
     inkscape:window-y="32"
     inkscape:window-maximized="1"
     inkscape:snap-global="false" />
  <metadata
     id="metadata5">
    <rdf:RDF>
      <cc:Work
         rdf:about="">
        <dc:format>image/svg+xml</dc:format>
        <dc:type
           rdf:resource="http://purl.org/dc/dcmitype/StillImage" />
      </cc:Work>
    </rdf:RDF>
  </metadata>
  <g
     inkscape:label="Layer 1"
     inkscape:groupmode="layer"
     id="layer1"
     transform="translate(-10.267458,-20.895276)">
    <g
       id="g428"
       transform="translate(7.5828451,18.918648)">
      <g
         transform="matrix(0.14940382,0,0,-0.14940382,44.594163,16.494496)"
         id="g833">
        <path
           inkscape:connector-curvature="0"
           id="path835"
           style="fill:#a2d94e;fill-opacity:1;fill-rule:nonzero;stroke:none"
           d="M 0,0 -28.051,-48.586 H 28.052 Z" />
      </g>
      <g
         transform="matrix(0.14940382,0,0,-0.14940382,40.403266,9.2355623)"
         id="g837">
        <path
           inkscape:connector-curvature="0"
           id="path839"
           style="fill:#a2d94e;fill-opacity:1;fill-rule:nonzero;stroke:none"
           d="M 0,0 28.051,48.586 H -28.052 Z" />
      </g>
      <g
         transform="matrix(0.14940382,0,0,-0.14940382,44.594163,31.012484)"
         id="g841">
        <path
           inkscape:connector-curvature="0"
           id="path843"
           style="fill:#81cc2c;fill-opacity:1;fill-rule:nonzero;stroke:none"
           d="M 0,0 28.052,48.587 H -28.051 Z" />
      </g>
      <g
         transform="matrix(0.14940382,0,0,-0.14940382,23.639395,23.753564)"
         id="g845">
        <path
           inkscape:connector-curvature="0"
           id="path847"
           style="fill:#475385;fill-opacity:1;fill-rule:nonzero;stroke:none"
           d="m 0,0 h -56.103 l -28.051,48.586 28.051,48.587 H 0 l -28.051,48.585 h -56.103 l -56.102,-97.172 56.102,-97.172 h 56.103 z" />
      </g>
      <g
         transform="matrix(0.14940382,0,0,-0.14940382,44.594163,1.9766433)"
         id="g849">
        <path
           inkscape:connector-curvature="0"
           id="path851"
           style="fill:#81cc2c;fill-opacity:1;fill-rule:nonzero;stroke:none"
           d="M 0,0 -28.051,-48.586 H 28.052 Z" />
      </g>
      <g
         transform="matrix(0.14940382,0,0,-0.14940382,44.594163,16.494496)"
         id="g853">
        <path
           inkscape:connector-curvature="0"
           id="path855"
           style="fill:#6eb82e;fill-opacity:1;fill-rule:nonzero;stroke:none"
           d="M 0,0 28.052,48.586 H -28.051 Z" />
      </g>
      <g
         transform="matrix(0.14940382,0,0,-0.14940382,48.785194,9.2355623)"
         id="g857">
        <path
           inkscape:connector-curvature="0"
           id="path859"
           style="fill:#81cc2c;fill-opacity:1;fill-rule:nonzero;stroke:none"
           d="M 0,0 -28.052,-48.586 H 28.051 Z" />
      </g>
      <g
         transform="matrix(0.14940382,0,0,-0.14940382,40.403266,23.753415)"
         id="g861">
        <path
           inkscape:connector-curvature="0"
           id="path863"
           style="fill:#a2d94e;fill-opacity:1;fill-rule:nonzero;stroke:none"
           d="M 0,0 -28.052,-48.587 H 28.051 Z" />
      </g>
      <g
         transform="matrix(0.14940382,0,0,-0.14940382,48.785194,23.753415)"
         id="g865">
        <path
           inkscape:connector-curvature="0"
           id="path867"
           style="fill:#6eb82e;fill-opacity:1;fill-rule:nonzero;stroke:none"
           d="M 0,0 28.051,48.586 H -28.052 Z" />
      </g>
      <g
         transform="matrix(0.14940382,0,0,-0.14940382,27.830292,16.494496)"
         id="g869">
        <path
           inkscape:connector-curvature="0"
           id="path871"
           style="fill:#6eb82e;fill-opacity:1;fill-rule:nonzero;stroke:none"
           d="M 0,0 -28.051,-48.586 H 28.052 Z" />
      </g>
      <g
         transform="matrix(0.14940382,0,0,-0.14940382,23.639395,9.2355623)"
         id="g873">
        <path
           inkscape:connector-curvature="0"
           id="path875"
           style="fill:#ed1f33;fill-opacity:1;fill-rule:nonzero;stroke:none"
           d="M 0,0 28.051,48.586 H -28.051 Z" />
      </g>
      <g
         transform="matrix(0.14940382,0,0,-0.14940382,27.830292,31.012484)"
         id="g877">
        <path
           inkscape:connector-curvature="0"
           id="path879"
           style="fill:#81cc2c;fill-opacity:1;fill-rule:nonzero;stroke:none"
           d="M 0,0 28.052,48.587 H -28.051 Z" />
      </g>
      <g
         transform="matrix(0.14940382,0,0,-0.14940382,27.830292,1.9766433)"
         id="g881">
        <path
           inkscape:connector-curvature="0"
           id="path883"
           style="fill:#f04634;fill-opacity:1;fill-rule:nonzero;stroke:none"
           d="M 0,0 -28.051,-48.586 H 28.052 Z" />
      </g>
      <g
         transform="matrix(0.14940382,0,0,-0.14940382,27.830292,16.494496)"
         id="g885">
        <path
           inkscape:connector-curvature="0"
           id="path887"
           style="fill:#f28033;fill-opacity:1;fill-rule:nonzero;stroke:none"
           d="M 0,0 28.052,48.586 H -28.051 Z" />
      </g>
      <g
         transform="matrix(0.14940382,0,0,-0.14940382,32.021338,9.2355623)"
         id="g889">
        <path
           inkscape:connector-curvature="0"
           id="path891"
           style="fill:#f3c00a;fill-opacity:1;fill-rule:nonzero;stroke:none"
           d="M 0,0 -28.052,-48.586 H 28.051 Z" />
      </g>
      <g
         transform="matrix(0.14940382,0,0,-0.14940382,23.639395,23.753415)"
         id="g893">
        <path
           inkscape:connector-curvature="0"
           id="path895"
           style="fill:#a2d94e;fill-opacity:1;fill-rule:nonzero;stroke:none"
           d="M 0,0 -28.051,-48.587 H 28.051 Z" />
      </g>
      <g
         transform="matrix(0.14940382,0,0,-0.14940382,32.021338,23.753415)"
         id="g897">
        <path
           inkscape:connector-curvature="0"
           id="path899"
           style="fill:#81cc2c;fill-opacity:1;fill-rule:nonzero;stroke:none"
           d="M 0,0 28.051,48.586 H -28.052 Z" />
      </g>
    </g>
  </g>
</svg>
